<svg width="39" height="33" viewBox="0 0 39 33" fill="none" xmlns="http://www.w3.org/2000/svg">
<path d="M0.00324992 11.029C0.0254178 8.73504 0.744542 6.50397 2.06235 4.64068C3.38017 2.77738 5.23238 1.37277 7.36589 0.618781C9.49939 -0.135211 11.8101 -0.2018 13.9823 0.428112C16.1545 1.05802 18.0821 2.35371 19.5019 4.13811C20.9517 2.31643 22.9302 1.00528 25.156 0.39107C27.3817 -0.223137 29.7415 -0.109136 31.8998 0.716864C34.0581 1.54286 35.9051 3.03882 37.1781 4.99204C38.4511 6.94526 39.0854 9.25633 38.9908 11.5967C38.786 18.6394 33.7326 24.0056 29.3877 27.385C26.6871 29.4711 23.7712 31.2527 20.6913 32.6984C20.6241 32.7314 20.57 32.7556 20.5288 32.771L20.4833 32.7908L20.4703 32.7974H20.4638C20.1601 32.9305 19.833 32.9994 19.5022 33C19.1715 33.0006 18.8441 32.9328 18.5399 32.8007H18.5334L18.5204 32.7908L18.4717 32.771C18.2179 32.6588 17.9666 32.541 17.7178 32.4179C14.8044 30.9985 12.0436 29.2765 9.47958 27.2794C5.08589 23.8274 0 18.3424 0 11.1544L0.00324992 11.029Z" fill="white" fill-opacity="0.2"/>
</svg>
