<svg width="68" height="37" viewBox="0 0 68 37" fill="none" xmlns="http://www.w3.org/2000/svg">
<path d="M0.00566653 9.05012C0.0443182 5.0878 1.29818 1.23413 3.5959 -1.98429C5.89362 -5.2027 9.12312 -7.62885 12.8431 -8.9312C16.563 -10.2335 20.592 -10.3486 24.3794 -9.26053C28.1668 -8.1725 31.5278 -5.9345 34.0033 -2.85235C36.5312 -5.99889 39.9808 -8.26361 43.8617 -9.32451C47.7425 -10.3854 51.857 -10.1885 55.6202 -8.76178C59.3834 -7.33505 62.6037 -4.75113 64.8234 -1.37738C67.043 1.99637 68.1489 5.98821 67.9839 10.0306C67.6269 22.1953 58.8159 31.4642 51.2401 37.3014C46.5314 40.9046 41.4472 43.9819 36.0771 46.4791C35.96 46.5361 35.8656 46.5779 35.7938 46.6045L35.7145 46.6387L35.6918 46.6501H35.6805C35.151 46.88 34.5805 46.999 34.0039 47C33.4272 47.001 32.8563 46.8839 32.3261 46.6558H32.3147L32.2921 46.6387L32.2071 46.6045C31.7646 46.4106 31.3263 46.2072 30.8925 45.9945C25.8128 43.5429 20.9991 40.5685 16.5285 37.119C8.86771 31.1564 0 21.6823 0 9.26674L0.00566653 9.05012Z" fill="white" fill-opacity="0.2"/>
</svg>
