<svg width="113" height="151" viewBox="0 0 113 151" fill="none" xmlns="http://www.w3.org/2000/svg">
<path d="M16.2381 76.0103C19.0821 73.4312 21.53 72.7288 21.53 72.7288C21.53 72.7288 25.5219 72.7203 30.2779 76.0357C36.5571 80.413 44.1445 83.4087 52.7062 82.1952C61.268 80.9818 67.7242 75.9957 72.5398 70.046C76.1871 65.5396 80.0243 64.4385 80.0243 64.4385C80.0243 64.4385 84.0162 64.43 88.7722 67.7454C95.0514 72.1227 102.639 75.1184 111.201 73.905C111.605 73.8476 112.005 73.7818 112.401 73.7079C107.755 94.7739 94.9955 123.714 85.9661 142.672C81.4402 152.175 68.9024 153.698 62.2329 145.555C46.7643 126.67 23.1723 95.8946 16.2381 76.0103Z" fill="url(#paint0_linear_1058_433)"/>
<path d="M43.628 81.9583C46.5097 82.5172 49.5414 82.6438 52.7062 82.1952C61.268 80.9818 67.7242 75.9957 72.5398 70.046C76.1871 65.5396 80.0243 64.4385 80.0243 64.4385C80.0243 64.4385 84.0162 64.43 88.7722 67.7454C89.7874 68.4532 90.837 69.1249 91.9192 69.7484C91.0555 75.2409 88.5129 80.3512 84.6179 84.3674C80.3037 88.8159 74.5915 91.6528 68.4356 92.4041L68.4345 92.4043C63.1679 93.0445 57.8296 92.1265 53.0825 89.7645C49.3602 87.9125 46.13 85.2365 43.628 81.9583Z" fill="#F8FAFC"/>
<path d="M5.43643 72.2181C-6.40259 47.1746 4.30177 17.2754 29.3453 5.43643C54.3888 -6.40259 84.2879 4.30175 96.127 29.3453C97.3984 32.0348 98.3683 35.44 99.0866 39.376C97.6679 41.2607 96.4429 42.099 96.4429 42.099C96.4429 42.099 92.6572 43.3655 87.0986 41.7184C79.7597 39.5438 71.6147 39.0928 63.872 42.9434C56.1294 46.7939 51.5742 53.5611 48.8797 60.7255C46.8389 66.1519 43.5446 68.4065 43.5446 68.4065C43.5446 68.4065 39.7588 69.673 34.2003 68.0259C26.8613 65.8513 18.7164 65.4002 10.9737 69.2508C9.00887 70.228 7.24928 71.393 5.67329 72.7046C5.59168 72.5417 5.51271 72.3795 5.43643 72.2181Z" fill="url(#paint1_linear_1058_433)"/>
<path d="M40.0793 23.4985C40.6616 23.309 41.2958 23.364 41.8361 23.6507C44.9899 25.3245 48.4996 26.2199 52.0722 26.2627C58.2703 26.1259 64.3285 28.1173 69.2276 31.9044C72.1189 34.1394 74.5046 36.92 76.2662 40.0623C72.1409 40.0803 67.9506 40.915 63.872 42.9434C56.1294 46.7939 51.5742 53.5611 48.8797 60.7255C46.8389 66.1519 43.5446 68.4065 43.5446 68.4065C43.5446 68.4065 39.7588 69.673 34.2003 68.0259C32.5706 67.543 30.9011 67.1451 29.2052 66.8604C28.0243 64.8201 27.1097 62.6232 26.4937 60.3217C25.1244 55.2062 25.2901 49.7994 26.9704 44.7727C27.1832 44.1363 27.6685 43.6272 28.2945 43.3838C28.9206 43.1404 29.6222 43.188 30.2087 43.5137C32.3469 44.7011 34.6567 45.5313 37.0472 45.9792C36.1702 43.0981 35.7423 40.0907 35.7856 37.0631C35.8472 32.7613 36.8586 28.5247 38.7478 24.6556C39.0163 24.1057 39.4969 23.688 40.0793 23.4985Z" fill="#F8FAFC"/>
<defs>
<linearGradient id="paint0_linear_1058_433" x1="0.613007" y1="0.613007" x2="125.749" y2="12.7056" gradientUnits="userSpaceOnUse">
<stop stop-color="#F84F90"/>
<stop offset="1" stop-color="#ED4B4B"/>
</linearGradient>
<linearGradient id="paint1_linear_1058_433" x1="0.613007" y1="0.613007" x2="125.749" y2="12.7056" gradientUnits="userSpaceOnUse">
<stop stop-color="#F84F90"/>
<stop offset="1" stop-color="#ED4B4B"/>
</linearGradient>
</defs>
</svg>
