<svg width="393" height="515" viewBox="0 0 393 515" fill="none" xmlns="http://www.w3.org/2000/svg">
<path fill-rule="evenodd" clip-rule="evenodd" d="M224.119 7.71765C221.004 3.5452 216.324 0.815498 211.153 0.155124C205.982 -0.505249 200.764 0.960416 196.697 4.21569C168.083 27.118 144.886 56.0418 128.762 88.9229C117.414 112.065 109.766 136.765 106.034 162.128C89.2676 149.984 74.5119 135.191 62.3769 118.276C59.0484 113.636 53.8221 110.717 48.1189 110.312C42.4157 109.908 36.8284 112.06 32.876 116.183C1.65788 148.754 -19.2878 189.76 -27.3604 234.109C-35.433 278.457 -30.2769 324.196 -12.5322 365.646C5.21242 407.095 -92.5361 549.341 -54.8469 574.173C-17.1577 599.005 151.536 537.003 196.696 537H196.705C249.495 536.97 398.631 600.835 439.653 567.673C480.675 534.511 413.872 374.659 424.868 323.125C435.865 271.592 428.811 217.853 404.887 170.886C380.963 123.918 341.586 86.5535 293.39 65.0575C266.053 51.731 242.301 32.072 224.119 7.71765Z" fill="url(#paint0_linear_1134_484)"/>
<path fill-rule="evenodd" clip-rule="evenodd" d="M224.119 7.71765C221.004 3.5452 216.324 0.815498 211.153 0.155124C205.982 -0.505249 200.764 0.960416 196.697 4.21569C168.083 27.118 144.886 56.0418 128.762 88.9229C117.414 112.065 109.766 136.765 106.034 162.128C89.2676 149.984 74.5119 135.191 62.3769 118.276C59.0484 113.636 53.8221 110.717 48.1189 110.312C42.4157 109.908 36.8284 112.06 32.876 116.183C1.65788 148.754 -19.2878 189.76 -27.3604 234.109C-35.433 278.457 -30.2769 324.196 -12.5322 365.646C5.21242 407.095 -92.5361 549.341 -54.8469 574.173C-17.1577 599.005 151.536 537.003 196.696 537H196.705C249.495 536.97 398.631 600.835 439.653 567.673C480.675 534.511 413.872 374.659 424.868 323.125C435.865 271.592 428.811 217.853 404.887 170.886C380.963 123.918 341.586 86.5535 293.39 65.0575C266.053 51.731 242.301 32.072 224.119 7.71765Z" fill="white" fill-opacity="0.2"/>
<defs>
<linearGradient id="paint0_linear_1134_484" x1="-63.5686" y1="0" x2="512.512" y2="66.6391" gradientUnits="userSpaceOnUse">
<stop stop-color="#F84F90"/>
<stop offset="1" stop-color="#ED4B4B"/>
</linearGradient>
</defs>
</svg>
